<svg xmlns="http://www.w3.org/2000/svg" viewBox="0 0 789.88 1080"><defs><style>.cls-1{fill:#fff;}</style></defs><g id="Layer_2" data-name="Layer 2"><g id="Layer_5" data-name="Layer 5"><path class="cls-1" d="M754.29,35.6V618.14C741.74,948.28,421.05,1037.23,395,1043.42c-26-6.15-346.81-95.06-359.36-425.28V35.6H754.29m-119.69,270q28.8,0,49.89-9.31a88.61,88.61,0,0,0,35.08-27.61L698.25,246.3a10.44,10.44,0,0,0-3.66-2.47,10.63,10.63,0,0,0-8.43.32,18.72,18.72,0,0,0-4.14,2.63,66.59,66.59,0,0,1-9.47,6.92,52.66,52.66,0,0,1-9.86,4.53,55.2,55.2,0,0,1-11.22,2.47,116,116,0,0,1-13.37.71,58.22,58.22,0,0,1-23.86-4.93,56,56,0,0,1-19.49-14.4,69.57,69.57,0,0,1-13.21-23.31q-4.86-13.85-4.85-31.66a91.32,91.32,0,0,1,4.85-30.71,68.61,68.61,0,0,1,13.53-23.31,58.61,58.61,0,0,1,20.76-14.8,67.42,67.42,0,0,1,26.73-5.17,74.8,74.8,0,0,1,14.72,1.28,67.24,67.24,0,0,1,11,3.1,47.9,47.9,0,0,1,8.11,4l6.29,4a61.31,61.31,0,0,0,5.4,3.11,12,12,0,0,0,5.42,1.27,10.76,10.76,0,0,0,6.68-1.83,22.72,22.72,0,0,0,4.13-4.06L722.43,99.6a89.29,89.29,0,0,0-14.95-12.49A101.87,101.87,0,0,0,689,77.4,120.65,120.65,0,0,0,667.46,71a125.11,125.11,0,0,0-24.58-2.31q-26.89,0-49.17,8.75A112.26,112.26,0,0,0,555.45,102a111.12,111.12,0,0,0-24.9,37.47q-8.91,21.71-8.91,47.65a138.87,138.87,0,0,0,7.79,47.18,109.29,109.29,0,0,0,22.36,37.54,102.4,102.4,0,0,0,35.48,24.83q20.93,9,47.33,9M315.75,303.1h92.6q20.85,0,37.08-5.33T472.71,283a63.11,63.11,0,0,0,16.79-22.19,66.32,66.32,0,0,0,5.73-27.53q0-19.58-11-32.06t-33.89-18.06a78.75,78.75,0,0,0,18-9,52.22,52.22,0,0,0,12.25-11.53,44.48,44.48,0,0,0,7-13.61,51,51,0,0,0,2.23-15A66.62,66.62,0,0,0,485,108,47.58,47.58,0,0,0,469.45,88.3q-10.67-8.11-27.52-12.57T401,71.28H315.75V303.1m-145.1-42.48A49.62,49.62,0,0,1,151.31,257a38.9,38.9,0,0,1-14.4-10.34,46.11,46.11,0,0,1-9-16.39,71.18,71.18,0,0,1-3.11-21.88V71.28H71V208.59a108.17,108.17,0,0,0,6.85,39.14,86.86,86.86,0,0,0,19.72,30.71A89.56,89.56,0,0,0,129,298.49q18.45,7.15,41.69,7.16,23.06,0,41.52-7.16a89.47,89.47,0,0,0,31.35-20.05,87.9,87.9,0,0,0,19.81-30.71,107.33,107.33,0,0,0,6.92-39.14V71.28H216.47V208.59a71.19,71.19,0,0,1-3.1,21.88,45.48,45.48,0,0,1-9,16.31A39.28,39.28,0,0,1,190,257a49.6,49.6,0,0,1-19.33,3.58M515.86,405a194.58,194.58,0,0,1-23.72-2.07l-1.27,10.25L495,414a114.71,114.71,0,0,0,21.65,2.3q12.2,0,19.29-6.16t7.08-18.6q0-9.78-4.84-14.34t-16.64-7.83q-11.8-3.27-15.26-5.52t-3.45-7.55q0-10.25,14.62-10.25,6.67,0,22.8,1.85l1-10.37-4-.69a126.64,126.64,0,0,0-21-2.07q-12.33,0-19.29,5.47t-7,16.18q0,10.71,5.53,15.66t16.81,7.77q11.29,2.84,14.52,5.19c2.14,1.57,3.22,4,3.22,7.31q0,12.66-14.28,12.66m100.19,11.29q4.26,0,13.76-.92a99.48,99.48,0,0,0,12.61-1.73V373.56H620v11.28h9.79v19.23a55.35,55.35,0,0,1-12.55,1q-11.75,0-15.6-6.39t-3.86-23.21q0-16.8,4.09-23T617,346.26a192.44,192.44,0,0,1,25,1.85l.46-10.14-4-.8a128.43,128.43,0,0,0-22.8-2.31q-17.16,0-24.13,9.68t-7,30.8q0,21.14,6.79,31t24.76,9.9m-306.1,0q17.85,0,24.94-9.67T342,376q0-21-7.14-31T310,334.86q-17.73,0-24.93,10.14t-7.19,31q0,20.85,7.14,30.58t25,9.73m394.77-12.55-24-67.6H658.43V415h12.78V347.3h1.61L697.35,415h21.88V336.13H706.45v67.6h-1.73M556.86,415h12.78V336.13H556.86V415m-126.22,0h49.75V403.73h-37v-23h30.06V369.64H443.42V347.3h37V336.13H430.64V415m-73.82,0h27.3q19,0,25.56-11.17a38.77,38.77,0,0,0,4.67-12.61,92.87,92.87,0,0,0,1.32-17q0-19.69-6.68-28.91t-24.87-9.21h-27.3V415m-146.71,0h12.78V386.92h18.54L252.84,415h14l-13-31q12.9-6,12.9-22.81,0-25.1-26.72-25.1H210.11V415m-63.68,0h49.75V403.73h-37v-23h30.06V369.64H159.21V347.3h37V336.13H146.43V415m-75.78,0H83.43l4.27-16.92H118L122.24,415h12.9l-19.57-78.88H90.11L70.65,415M401,478.42h0V482h0v31.73h0v3.57h0V549h0v3.57h0v31.75h0v3.58h0V619.7h0v3.6h0v31.82h0v3.59h0v129.9h0v3.59h0V824h0v3.6h0v31.77h0V863h0v31.75h0v3.57h0v17h0v88.92a279.67,279.67,0,0,0,190.77-80.85l0,0,1.26-1.26h0l1.26-1.26h0a279.79,279.79,0,0,0,80.94-195.4h0v-3.58h0a279.79,279.79,0,0,0-80.94-195.4h0l-2.52-2.53,0,0A279.67,279.67,0,0,0,401,443.1v3.58h0v31.74M286.66,463c-16.05,0-32.05-3.84-51.35-9-20.83-5.56-40.28-10.18-60.73-10.18a128.34,128.34,0,0,0-21.06,1.7c-13.07,2.16-25.49,5.42-37.5,8.57-15.29,4-29.77,7.79-44.73,9.19v34.43l.1,1.32c19.11-1.44,36.68-6.05,53.67-10.51,11.73-3.08,22.82-6,34.25-7.87a92.48,92.48,0,0,1,15.24-1.23c16.35,0,32.78,3.95,51.58,9,18.2,4.85,38.24,10.2,60.44,10.2a130.86,130.86,0,0,0,21.36-1.73c13.05-2.15,25.46-5.41,37.46-8.56,14.94-3.92,29.11-7.61,43.71-9.1V443.41c-18.75,1.51-36,6-52.75,10.43-11.73,3.08-22.81,6-34.22,7.87A94.89,94.89,0,0,1,286.66,463M71.41,571.15c19.11-1.43,36.68-6,53.67-10.5,11.74-3.08,22.82-6,34.25-7.88a93.65,93.65,0,0,1,15.24-1.22c16.35,0,32.78,4,51.59,9,18.19,4.85,38.24,10.2,60.44,10.2A130.75,130.75,0,0,0,308,569c13.05-2.15,25.46-5.41,37.46-8.56l3.45-.91,6.2-38.26c-6.34,1.5-12.55,3.13-18.69,4.74-11.73,3.08-22.8,6-34.22,7.87a94.8,94.8,0,0,1-15.47,1.25c-16.05,0-32-3.85-51.35-9C214.5,520.57,195.05,516,174.6,516a129.45,129.45,0,0,0-21.06,1.7c-13.07,2.16-25.49,5.42-37.5,8.57-15.29,4-29.78,7.79-44.75,9.19v34.13l.12,1.61M353.68,752.44,221.49,568.22l55.55,206-142-116,73.12,154L94.26,740.64A370.74,370.74,0,0,0,124.17,805c26.35,44.83,62.57,84.84,107.63,118.91,64.11,48.46,129.34,72.17,157.3,80.84V533.68L353.68,752.44M73,643.18c18.5-1.56,35.56-6,52.08-10.37,11.74-3.08,22.82-6,34.25-7.88a93.41,93.41,0,0,1,15.22-1.22,135,135,0,0,1,25.77,2.77L190.22,589a147.55,147.55,0,0,0-15.64-.85,129.05,129.05,0,0,0-21,1.7c-13.07,2.16-25.49,5.42-37.5,8.57-15.3,4-29.8,7.79-44.77,9.19v9.88q.51,13,1.73,25.73m269.86-46.72-6.48,1.7c-11.73,3.07-22.81,6-34.22,7.87-3,.5-6,.82-9,1l23.33,32.52c6.88-1.39,13.59-3,20.16-4.7l6.22-38.41M401,111.53A75.23,75.23,0,0,1,416.71,113a26.82,26.82,0,0,1,10.9,4.78,19.7,19.7,0,0,1,6.36,8.83A39.37,39.37,0,0,1,436,140.33q0,8.43-2.63,14a20.39,20.39,0,0,1-7.63,8.75,33.27,33.27,0,0,1-12.18,4.46,92.13,92.13,0,0,1-16.07,1.27h-28V111.53H401m6,93.24A62.75,62.75,0,0,1,424,206.68a28.07,28.07,0,0,1,10.74,5.41,18.94,18.94,0,0,1,5.72,8.59,36.48,36.48,0,0,1,1.68,11.46,42.42,42.42,0,0,1-1.44,11,23.35,23.35,0,0,1-5.25,9.71,27.48,27.48,0,0,1-10.58,7q-6.76,2.71-17.42,2.71H369.53V204.77h37.55M310,346q10.83,0,14.8,7.14t4,22.86q0,15.72-3.86,22.4T310,405.11q-11.06,0-15-6.79t-3.91-22.4q0-15.6,4-22.75T310,346m-204.17.81,9.67,40H90.23l9.79-40h5.76m134.27.35q13.59,0,13.59,14.16,0,6.57-3.22,10.54t-10.14,4H222.89V347.19h17.16m144.07.11q11.16,0,14.74,6.33t3.57,20.62a95,95,0,0,1-.63,12,34.07,34.07,0,0,1-2.48,9.1q-3.79,8.42-15.2,8.41H369.61V347.3h14.51M408.63,447a275.41,275.41,0,0,1,55.94,8.52l-8.22,30.66a243.62,243.62,0,0,0-34.15-6.27c-3.85-19.5-9.2-28.65-13.57-32.91M468,456.4a275.34,275.34,0,0,1,63.57,26.35l-15.88,27.5a244.29,244.29,0,0,0-55.91-23.18L468,456.4m-45.14,27.13a238.33,238.33,0,0,1,32.55,6.06l-8.22,30.65A209.6,209.6,0,0,0,426.42,516a286,286,0,0,0-3.54-32.49m111.79,1a276.88,276.88,0,0,1,54.55,41.93l-22.44,22.44a246.22,246.22,0,0,0-48-36.87l15.87-27.5m-75.79,6a241,241,0,0,1,29.8,10.35,243.54,243.54,0,0,1,25.25,12.47l-15.87,27.49a208.72,208.72,0,0,0-47.4-19.64l8.22-30.67M517,515.12a241.64,241.64,0,0,1,47.23,36.32l-22.43,22.43a210.65,210.65,0,0,0-40.68-31.25L517,515.12m-90.4,4.53q9.94,1.54,19.67,4l-8.22,30.66c-3.54-.91-7.14-1.7-10.77-2.39,0-3.36-.05-6.84-.07-10.5-.07-7.89-.28-15.14-.61-21.81m23.12,5a205.22,205.22,0,0,1,25.19,8.77,208.11,208.11,0,0,1,21.34,10.52L480.4,571.4a173.44,173.44,0,0,0-38.88-16.12l8.22-30.66m142,4.38a276.73,276.73,0,0,1,41.93,54.54l-27.49,15.88a247,247,0,0,0-36.87-48L591.74,529m-92.38,16.7a206.91,206.91,0,0,1,39.93,30.7l-22.43,22.43a175.53,175.53,0,0,0-33.37-25.64l15.87-27.49M566.78,554a241.65,241.65,0,0,1,36.31,47.24L575.6,617.07a211.35,211.35,0,0,0-31.25-40.68L566.78,554m-139.45,1.63q4.95,1,9.82,2.21l-8.22,30.66c-.46-.12-.94-.22-1.4-.33,0-8.81-.11-19.52-.2-32.54m13.27,3.14a169.49,169.49,0,0,1,38,15.77L462.75,602a138.86,138.86,0,0,0-30.36-12.6l8.21-30.65m41.11,17.56a171.71,171.71,0,0,1,32.62,25.08L491.9,623.79a140,140,0,0,0-26.06-20l15.87-27.48m60.1,2.64a206.21,206.21,0,0,1,30.7,39.93L545,634.72a176.16,176.16,0,0,0-25.64-33.37l22.42-22.42m93.66,7.7a278.14,278.14,0,0,1,14.41,29.17,274.51,274.51,0,0,1,11.93,34.4l-30.67,8.22A243.45,243.45,0,0,0,608,602.51l27.5-15.88M427.54,591.8l.47.11-.46,1.73c0-.6,0-1.22,0-1.84m3.92,1a135.31,135.31,0,0,1,16,5.62A133.1,133.1,0,0,1,461,605.08L445.1,632.55a104.17,104.17,0,0,0-17.61-7.74c.05-2.83.09-8.08.09-17.49l3.88-14.49m85.39,11.06a171.08,171.08,0,0,1,25.08,32.62l-27.48,15.87a139.63,139.63,0,0,0-20-26.06l22.42-22.43m88,.4a241.25,241.25,0,0,1,22.82,55.05L597,667.56a209.2,209.2,0,0,0-19.65-47.4l27.5-15.87m-140.84,2.58a135.66,135.66,0,0,1,25.31,19.46l-22.42,22.42a104.79,104.79,0,0,0-18.75-14.41l15.86-27.47M574.3,621.94a205.75,205.75,0,0,1,19.3,46.54l-30.66,8.21a174.3,174.3,0,0,0-16.12-38.88l27.48-15.87m-82.41,6.92a136.18,136.18,0,0,1,19.46,25.31L483.88,670a104.43,104.43,0,0,0-14.41-18.75l22.42-22.42m-62.47.44c1.44.53,2.88,1.08,4.29,1.68a99.89,99.89,0,0,1,9.58,4.69l-3.16,5.49L429.42,629.3m17,8.15a100.63,100.63,0,0,1,18,13.86l-7.92,7.92-13.82-15.29,3.75-6.49m97.33,2.15A172.63,172.63,0,0,1,552.3,657a170.34,170.34,0,0,1,7.19,20.6l-30.66,8.21a138.14,138.14,0,0,0-12.59-30.36l27.48-15.87m119,14a276.52,276.52,0,0,1,8.89,68.22H639.91a246.16,246.16,0,0,0-7.83-60l30.66-8.22m-195.83.18a101.16,101.16,0,0,1,13.86,18l-8.49,4.9-13.42-14.85,8.05-8m46.23,3.43a138.38,138.38,0,0,1,6.63,13.5,136,136,0,0,1,5.61,16L494.73,695a103.68,103.68,0,0,0-9.07-21.85l27.48-15.86m115.49,5.53a241.06,241.06,0,0,1,7.7,59.08H604.61A210.62,210.62,0,0,0,598,671l30.66-8.21m-34.1,9.14A206.67,206.67,0,0,1,601,721.87H569.31a175.49,175.49,0,0,0-5.44-41.73l30.66-8.21m-112,3a102.3,102.3,0,0,1,4.69,9.58,99.32,99.32,0,0,1,4,11.4l-1.3.35-15.21-16.81,7.82-4.52m77.87,6.15a171.31,171.31,0,0,1,5.32,40.8H534a140,140,0,0,0-4.25-32.59l30.66-8.21m-34.11,9.14a136.15,136.15,0,0,1,4.13,31.66H513.13l-16.28-18q-.54-2.76-1.2-5.47l30.66-8.21m145.32,35.24a276.52,276.52,0,0,1-8.89,68.22l-30.66-8.22a246.16,246.16,0,0,0,7.83-60h31.72m-35.3,0a241.06,241.06,0,0,1-7.7,59.08L598,776.32a210.62,210.62,0,0,0,6.64-50.87h31.72m-35.29,0a206.67,206.67,0,0,1-6.51,49.94l-30.66-8.21a175.49,175.49,0,0,0,5.44-41.73H601m-35.3,0a171.31,171.31,0,0,1-5.32,40.8l-9.25-2.47c-5.32-5.84-11.63-12.79-18.54-20.41A143,143,0,0,0,534,725.45h31.73m-35.3,0a141,141,0,0,1-1,14.45c-4.21-4.63-8.6-9.48-13.11-14.45h14.07m25.19,43.22,3.86,1c-.22.81-.47,1.61-.71,2.41l-3.15-3.44m7.31,2,30.66,8.21a203.76,203.76,0,0,1-8.78,25.2c-1.18,2.8-2.44,5.55-3.74,8.28-1.46-15.9-5.87-22.61-14.16-31.39-1.09-1.15-2.91-3.12-5.33-5.75.47-1.51.92-3,1.35-4.55m-135.49,6.43,2.6,1.35c-.44.29-.87.59-1.32.87l-1.28-2.22M597,779.76,627.71,788a241.25,241.25,0,0,1-22.82,55l-23.28-13.44c0-3.69,0-7.05-.1-10.11A208.78,208.78,0,0,0,597,779.76m-163.33.56,30.48,15.87a100.43,100.43,0,0,1-17.8,13.68L430.53,782.4c1.08-.67,2.14-1.36,3.18-2.08m-6.27,3.87,15.86,27.46a101.23,101.23,0,0,1-9.59,4.69c-2.23.95-4.5,1.79-6.8,2.57l.26-34.58.27-.14m203.7,4.71,30.67,8.22a274.51,274.51,0,0,1-11.93,34.4,278.14,278.14,0,0,1-14.41,29.17L608,844.81a243.45,243.45,0,0,0,23.17-55.91m-164.2,9.67L489.36,821a135.66,135.66,0,0,1-25.31,19.46L448.19,813a104.79,104.79,0,0,0,18.75-14.41m8.57,3.52,21.27,11.08c-1.59,1.8-3.21,3.57-4.89,5.29l-16.38-16.37M445.1,814.77,461,842.24a133.1,133.1,0,0,1-13.51,6.63,135.31,135.31,0,0,1-16,5.62L426.77,837l.11-14.27a104.2,104.2,0,0,0,18.22-7.94m55,.1,28.75,15a174.38,174.38,0,0,1-12,13.58L494.43,821c1.93-2,3.81-4,5.63-6.13m-8.16,8.66L514.33,846A171.71,171.71,0,0,1,481.71,871l-15.87-27.48a140,140,0,0,0,26.06-20m40.14,8,28.55,14.87a207,207,0,0,1-18.78,22L519.39,846A175.41,175.41,0,0,0,532,831.53m49.49,2.14,21.56,12.45a241.65,241.65,0,0,1-36.31,47.24l-22.43-22.43a212.27,212.27,0,0,0,19.45-22.86l16.69,8.7c.54-8.88.89-16.48,1-23.1M462.75,845.34l15.86,27.48a169.49,169.49,0,0,1-38,15.77l-8.21-30.65a138.86,138.86,0,0,0,30.36-12.6m143.43,2.56,27.49,15.88a276.73,276.73,0,0,1-41.93,54.54l-22.43-22.43a246.58,246.58,0,0,0,36.87-48m-89.32.59,22.43,22.43a206.91,206.91,0,0,1-39.93,30.7l-15.87-27.49a175.53,175.53,0,0,0,33.37-25.64m-90.19,1.91,1.34,5-1.38.33,0-5.34m2.26,8.46,8.22,30.66c-.75.19-1.5.36-2.26.54l-8.46-7.95.17-22.7c.78-.18,1.56-.35,2.33-.55m112.89,14.59,22.43,22.43A241.34,241.34,0,0,1,517,932.2l-15.88-27.5a210.25,210.25,0,0,0,40.68-31.25m-61.42,2.47,15.87,27.49a208.11,208.11,0,0,1-21.34,10.52c-3.41,1.44-6.86,2.77-10.33,4L443,897.72,441.52,892a173.44,173.44,0,0,0,38.88-16.12M438.07,893l0,.11L438,893l.06,0m128.71,5.44,22.44,22.44a276.88,276.88,0,0,1-54.55,41.93l-15.87-27.5a246.22,246.22,0,0,0,48-36.87m-68.72,8.09L513.93,934a243.54,243.54,0,0,1-25.25,12.47c-2.11.89-4.23,1.73-6.35,2.56-.86-17.39-4.12-18.35-10.6-24.4l-4.21-3.94a209.38,209.38,0,0,0,30.54-14.18m-93.53,28.83,44.14,24a240.9,240.9,0,0,1-44.14,5.83V935.33m111.18,1.74,15.88,27.5A275.34,275.34,0,0,1,468,990.92l-6.59-24.59L482.3,977.7c.28-10.58.34-18.65.17-24.92a243.44,243.44,0,0,0,33.24-15.71m-62.38,24.84L457.1,964l7.47,27.87a276.34,276.34,0,0,1-60,8.67V968.77a245.1,245.1,0,0,0,48.8-6.86M789.88,0H0V618.81l0,.68C3.13,701,24.21,775.59,62.7,841.07,93.81,894,136.23,941,188.78,980.7c96.13,72.67,193.86,96.38,198,97.36L395,1080l8.21-2c4.12-1,101.93-24.75,198-97.4,52.54-39.73,94.94-86.7,126-139.62,38.47-65.47,59.55-140,62.65-221.54l0-.68V0Z"/></g></g></svg>